<svg width="20" height="16" viewBox="0 0 20 16" fill="none" xmlns="http://www.w3.org/2000/svg">
<path d="M1.80283 0.762817C1.02763 0.762817 0.400027 1.39042 0.400027 2.16442V8.00122C0.398379 9.80769 1.07586 11.5488 2.29804 12.879C3.52023 14.2093 5.19782 15.0315 6.99796 15.1826C8.7981 15.3336 10.5893 14.8025 12.016 13.6945C13.4428 12.5865 14.401 10.9827 14.7004 9.20122H16C16.9548 9.20122 17.8705 8.82193 18.5456 8.1468C19.2207 7.47167 19.6 6.556 19.6 5.60122C19.6 4.64644 19.2207 3.73076 18.5456 3.05563C17.8705 2.3805 16.9548 2.00122 16 2.00122H14.7904C14.7502 1.6602 14.5863 1.34579 14.3297 1.11755C14.0732 0.889309 13.7418 0.763095 13.3984 0.762817H1.80163H1.80283ZM1.60003 2.16442C1.60003 2.05282 1.69003 1.96282 1.80283 1.96282H13.3972C13.51 1.96282 13.6 2.05282 13.6 2.16442V8.00122C13.6 9.59252 12.9679 11.1186 11.8427 12.2439C10.7175 13.3691 9.19133 14.0012 7.60003 14.0012C6.00873 14.0012 4.4826 13.3691 3.35739 12.2439C2.23217 11.1186 1.60003 9.59252 1.60003 8.00122V2.16442ZM14.8 3.20002H16C16.6365 3.20002 17.247 3.45287 17.6971 3.90296C18.1472 4.35305 18.4 4.9635 18.4 5.60002C18.4 6.23654 18.1472 6.84699 17.6971 7.29707C17.247 7.74716 16.6365 8.00002 16 8.00002H14.8V3.20002Z" fill="black"/>
</svg>
