<svg width="24" height="24" viewBox="0 0 24 24" fill="none" xmlns="http://www.w3.org/2000/svg">
<path d="M12 11.75C12.4833 11.75 12.8958 11.5792 13.2375 11.2375C13.5792 10.8958 13.75 10.4833 13.75 10C13.75 9.51667 13.5792 9.10417 13.2375 8.7625C12.8958 8.42083 12.4833 8.25 12 8.25C11.5167 8.25 11.1042 8.42083 10.7625 8.7625C10.4208 9.10417 10.25 9.51667 10.25 10C10.25 10.4833 10.4208 10.8958 10.7625 11.2375C11.1042 11.5792 11.5167 11.75 12 11.75ZM12.025 21.7C11.9083 21.7 11.8 21.6833 11.7 21.65C11.6 21.6167 11.5083 21.5667 11.425 21.5C8.94167 19.3167 7.08333 17.2917 5.85 15.425C4.61667 13.5583 4 11.8167 4 10.2C4 7.7 4.80417 5.70833 6.4125 4.225C8.02083 2.74167 9.88333 2 12 2C14.1167 2 15.9792 2.74167 17.5875 4.225C19.1958 5.70833 20 7.7 20 10.2C20 11.8167 19.3833 13.5583 18.15 15.425C16.9167 17.2917 15.0583 19.3167 12.575 21.5C12.4917 21.5667 12.4042 21.6167 12.3125 21.65C12.2208 21.6833 12.125 21.7 12.025 21.7Z" fill="#212121"/>
</svg>
