<svg width="24" height="24" viewBox="0 0 24 24" fill="none" xmlns="http://www.w3.org/2000/svg">
<path d="M12 22.9501C11.7834 22.9501 11.6042 22.8792 11.4625 22.7375C11.3209 22.5959 11.25 22.4167 11.25 22.2001V21.0751C8.96672 20.8417 7.06672 19.9667 5.55005 18.4501C4.03338 16.9334 3.15838 15.0334 2.92505 12.75H1.80005C1.58338 12.75 1.40422 12.6792 1.26255 12.5375C1.12088 12.3959 1.05005 12.2167 1.05005 12C1.05005 11.7834 1.12088 11.6042 1.26255 11.4625C1.40422 11.3209 1.58338 11.25 1.80005 11.25H2.92505C3.15838 8.96672 4.03338 7.06672 5.55005 5.55005C7.06672 4.03338 8.96672 3.15838 11.25 2.92505V1.80005C11.25 1.58338 11.3209 1.40422 11.4625 1.26255C11.6042 1.12088 11.7834 1.05005 12 1.05005C12.2167 1.05005 12.3959 1.12088 12.5375 1.26255C12.6792 1.40422 12.75 1.58338 12.75 1.80005V2.92505C15.0334 3.15838 16.9334 4.03338 18.4501 5.55005C19.9667 7.06672 20.8417 8.96672 21.0751 11.25H22.2001C22.4167 11.25 22.5959 11.3209 22.7375 11.4625C22.8792 11.6042 22.9501 11.7834 22.9501 12C22.9501 12.2167 22.8792 12.3959 22.7375 12.5375C22.5959 12.6792 22.4167 12.75 22.2001 12.75H21.0751C20.8417 15.0334 19.9667 16.9334 18.4501 18.4501C16.9334 19.9667 15.0334 20.8417 12.75 21.0751V22.2001C12.75 22.4167 12.6792 22.5959 12.5375 22.7375C12.3959 22.8792 12.2167 22.9501 12 22.9501ZM12 19.6C14.0834 19.6 15.8709 18.8542 17.3625 17.3625C18.8542 15.8709 19.6 14.0834 19.6 12C19.6 9.91672 18.8542 8.12922 17.3625 6.63755C15.8709 5.14588 14.0834 4.40005 12 4.40005C9.91672 4.40005 8.12922 5.14588 6.63755 6.63755C5.14588 8.12922 4.40005 9.91672 4.40005 12C4.40005 14.0834 5.14588 15.8709 6.63755 17.3625C8.12922 18.8542 9.91672 19.6 12 19.6ZM12 15.75C10.95 15.75 10.0625 15.3875 9.33755 14.6625C8.61255 13.9375 8.25005 13.05 8.25005 12C8.25005 10.95 8.61255 10.0625 9.33755 9.33755C10.0625 8.61255 10.95 8.25005 12 8.25005C13.05 8.25005 13.9375 8.61255 14.6625 9.33755C15.3875 10.0625 15.75 10.95 15.75 12C15.75 13.05 15.3875 13.9375 14.6625 14.6625C13.9375 15.3875 13.05 15.75 12 15.75ZM12 14.25C12.6334 14.25 13.1667 14.0334 13.6 13.6C14.0334 13.1667 14.25 12.6334 14.25 12C14.25 11.3667 14.0334 10.8334 13.6 10.4C13.1667 9.96671 12.6334 9.75005 12 9.75005C11.3667 9.75005 10.8334 9.96671 10.4 10.4C9.96671 10.8334 9.75005 11.3667 9.75005 12C9.75005 12.6334 9.96671 13.1667 10.4 13.6C10.8334 14.0334 11.3667 14.25 12 14.25Z" fill="#212121"/>
</svg>
