<svg width="24" height="24" viewBox="0 0 24 24" fill="none" xmlns="http://www.w3.org/2000/svg">
<path d="M10.3001 21.0001C10.0834 21.0001 9.90426 20.9293 9.7626 20.7876C9.62093 20.6459 9.5501 20.4668 9.5501 20.2501V18.0501L6.4001 14.5751C6.26676 14.4418 6.16676 14.2876 6.1001 14.1126C6.03343 13.9376 6.0001 13.7584 6.0001 13.5751V8.7751C6.0001 8.35843 6.14176 8.00426 6.4251 7.7126C6.70843 7.42093 7.0501 7.2751 7.4501 7.2751L8.9501 8.7751H7.5001V13.5501L11.0501 17.4501V19.5001H12.9501V17.4501L14.1751 16.1001L2.2001 4.1251C2.0501 3.9751 1.9751 3.8001 1.9751 3.6001C1.9751 3.4001 2.0501 3.2251 2.2001 3.0751C2.3501 2.9251 2.5251 2.8501 2.7251 2.8501C2.9251 2.8501 3.1001 2.9251 3.2501 3.0751L20.9501 20.7751C21.1001 20.9251 21.1751 21.1001 21.1751 21.3001C21.1751 21.5001 21.1001 21.6751 20.9501 21.8251C20.8001 21.9751 20.6251 22.0501 20.4251 22.0501C20.2251 22.0501 20.0501 21.9751 19.9001 21.8251L15.2501 17.1751L14.4501 18.0501V20.2501C14.4501 20.4668 14.3793 20.6459 14.2376 20.7876C14.0959 20.9293 13.9168 21.0001 13.7001 21.0001H10.3001ZM18.0001 8.7751V13.6501C18.0001 13.8334 17.9709 14.0043 17.9126 14.1626C17.8543 14.3209 17.7668 14.4668 17.6501 14.6001L17.3001 15.0001L16.5001 14.2001V8.7751H11.0751L8.5501 6.2501V3.7501C8.5501 3.53343 8.62093 3.35426 8.7626 3.2126C8.90426 3.07093 9.08343 3.0001 9.3001 3.0001C9.51676 3.0001 9.69593 3.07093 9.8376 3.2126C9.97926 3.35426 10.0501 3.53343 10.0501 3.7501V7.2751H13.9501V3.7501C13.9501 3.53343 14.0209 3.35426 14.1626 3.2126C14.3043 3.07093 14.4834 3.0001 14.7001 3.0001C14.9168 3.0001 15.0959 3.07093 15.2376 3.2126C15.3793 3.35426 15.4501 3.53343 15.4501 3.7501V8.0251L14.7001 7.2751H16.5001C16.9168 7.2751 17.2709 7.42093 17.5626 7.7126C17.8543 8.00426 18.0001 8.35843 18.0001 8.7751Z" fill="black"/>
</svg>
